<?xml version="1.0" encoding="utf-8"?>
<!-- Generator: Adobe Illustrator 25.2.1, SVG Export Plug-In . SVG Version: 6.00 Build 0)  -->
<svg
    xmlns="http://www.w3.org/2000/svg"
    xmlns:xlink="http://www.w3.org/1999/xlink"
    x="0px"
    y="0px"
    viewBox="0 0 312 108"
    width="312.213"
    height="108.9"
    style="enable-background:new 0 0 312 108;"
    xml:space="preserve"
>
<style type="text/css">
	.st0{fill:#02023D;}
	.st1{fill:#FFFFFF;}
	.st2{fill:url(#SVGID_1_);}
	.st3{fill:url(#SVGID_2_);}
	.st4{fill:url(#SVGID_3_);}
	.st5{fill:url(#SVGID_4_);}
	.st6{fill:url(#SVGID_5_);}
	.st7{fill:url(#SVGID_6_);}
</style>
<g>
	<g>
		<g>
			<path class="st0" d="M199.8,238.1l-10.4,0.2v43.5h-9.1v-43.5l-10.7-0.2l0.3-8.1h30V238.1z"/>
			<path class="st0" d="M223.9,247.1l-0.1,9.5c-6.6,1.1-9.7,4.1-9.3,8.9v16.3h-8.9v-32.3l4.1,4.1
				C213.3,250.3,218.1,248.2,223.9,247.1z"/>
			<path class="st0" d="M239.5,231.7v9.2h-9v-9.2H239.5z M239.7,281.8h-8.9v-33.2h8.9V281.8z"/>
			<path class="st0" d="M281.6,266.1c0,4.8-1.4,8.9-4.3,12.3c-3.1,3.6-7,5.4-11.7,5.4c-4,0-7.4-1.2-10.1-3.6v20h-8.9v-50.7l4.9,4.3
				c2.2-3,6.2-4.7,11.8-5c6.2,0,10.8,1.7,13.9,5.1C280.1,257.1,281.6,261.2,281.6,266.1z M272.8,266.1c0-2.8-0.8-5-2.5-6.9
				c-1.7-1.8-3.9-2.7-6.6-2.7c-2.6,0-4.6,0.9-6.2,2.8s-2.3,4.1-2.3,6.8c0,2.7,0.7,5,2.2,6.8c1.5,2,3.5,3,6.2,3.1
				c0.2,0,0.9-0.1,2.2-0.3c1,0,2-0.4,2.9-1.1C271.5,272.7,272.8,269.9,272.8,266.1z"/>
			<path class="st0" d="M311.8,272c0,3-1.2,5.6-3.6,7.7c-2.4,2.1-5.6,3.1-9.5,2.9c-4.9-0.4-8.7-1.7-11.5-3.9l3.9-5.9
				c2.8,1.1,5.6,1.9,8.4,2.4c1.7-0.3,2.8-1.1,3.4-2.3c-0.2-1.8-1.4-3.1-3.7-4c-4.2-2.2-6.5-3.5-6.9-3.8c-2.5-1.9-3.7-4.1-3.7-6.6
				c0-2.8,1.1-5.1,3.3-6.9c2.2-1.9,4.7-2.8,7.5-2.8c2.5,0,4.6,0.6,6.4,1.8c1.5,0.5,2.9,1.4,4.2,2.7l-4.2,4.8
				c-2.1-1.1-4.3-1.7-6.8-1.7c-0.4,0-0.8,0.2-1.2,0.5c-0.4,0.4-0.6,0.8-0.6,1.2c0,0.8,1.3,1.8,3.8,2.9c3.5,1.4,5.8,2.7,7.1,3.6
				C310.5,266.5,311.8,269,311.8,272z"/>
			<path class="st0" d="M336.7,256.9h-6.1v24.8h-8.9v-24.8l-4.5-0.1l4.5-8v-11.5h8.9v11.5h6.1V256.9z"/>
			<path class="st0" d="M379.1,275c-1.7,2.2-3.7,4.1-6,5.6c-2.3,1.5-5.9,2.1-10.8,2c-7,0.2-12-1.5-15.3-5c-3.3-3-4.8-7.1-4.5-12.3
				c-0.5-3.7,1.2-7.5,4.9-11.2c3.7-3.7,8.4-5.6,14-5.6c5.8-0.2,10.5,1.7,14.1,5.7c3.6,4,5.5,8.6,5.5,13.9h-30.2
				c1.1,4.9,4.9,7.5,11.5,7.8c4.3,0,7.5-1.4,9.5-4.2L379.1,275z M372.1,262.5c-1.9-4.1-5.3-6.3-10.4-6.7c-5.4,0.4-9.1,2.6-11.2,6.7
				H372.1z"/>
			<path class="st0" d="M404.8,247.1l-0.1,9.5c-6.6,1.1-9.7,4.1-9.3,8.9v16.3h-8.9v-32.3l4.1,4.1C394.2,250.3,399,248.2,404.8,247.1
				z"/>
		</g>
	</g>
	<path class="st0" d="M102.2,204.8c0.8,0,1.7-0.1,2.5-0.1c0.4,0.5,0.8,1,1.2,1.6c-0.2,0-0.3,0-0.4,0c-0.3,0-0.4,0.2-0.4,0.4
		c0,0.2,0.2,0.4,0.5,0.3c0.3,0,0.5-0.1,0.8-0.1c0.3,0.5,0.7,1,1,1.5c-0.1,0-0.2,0-0.2,0c-0.3,0-0.4,0.2-0.3,0.4
		c0,0.2,0.2,0.4,0.4,0.3c0.2,0,0.4-0.1,0.6-0.1c0.6,0.8,1.1,1.5,1.7,2.2c0,0,0,0,0.1,0c0.1,0,0.2,0,0.2,0c-0.2-0.2-0.4-0.4-0.5-0.6
		c-0.8-2-1.5-3.9-2.2-5.9c0-0.1,0-0.2-0.1-0.2c1.5-0.3,3.1-0.5,4.6-0.8c0.4,0.4,0.8,0.7,1.2,1.1c0.2,0.2,0.4,0.3,0.8,0.3
		c0,0-1.4-1.9-0.5-4.3c-0.3,0-0.5,0.2-0.6,0.4c-0.3,0.5-0.6,1-0.9,1.4c-1.6,0.1-3.1,0.2-4.6,0.3c0-0.1,0-0.2,0-0.3
		c0.2-1.7,0.4-3.3,0.7-5c0.1-0.7,0-1.4,0.5-1.9c-0.1,0-0.2,0-0.4,0c-0.4,0.8-0.8,1.6-1.1,2.4c-0.2,0-0.4,0-0.6,0.1
		c-0.2,0-0.3,0.2-0.3,0.4c0,0.2,0.2,0.4,0.4,0.3c0.1,0,0.2,0,0.3,0c-0.2,0.6-0.4,1.1-0.7,1.7c-0.3,0-0.5,0-0.8,0.1
		c-0.2,0-0.4,0.2-0.4,0.4c0,0.2,0.2,0.3,0.4,0.3c0.1,0,0.2,0,0.4-0.1l0,0.1c-0.3,0.6-0.5,1.2-0.8,1.7c-0.8,0.1-1.7,0.3-2.5,0.4
		c-0.5,0.1-0.9,0.3-1.4,0.5c-0.1,0.1-0.2,0.2-0.3,0.4c0.2,0.1,0.3,0.2,0.5,0.2C101.3,204.7,101.8,204.8,102.2,204.8z"/>
	<path class="st0" d="M159.6,232.4c-0.5-1.9-1.2-3.6-2.1-5.4c-0.9-1.7-1.9-3.2-3.1-4.7c-0.5-0.5-0.9-1.1-1.5-1.6
		c-1.4-1.5-3.2-2.9-5-4c-1-0.6-2-1.1-3-1.4c-0.1,0-0.1-0.1-0.2-0.1c-1.7-0.9-3.3-1.6-5-2.2c2.3,3.1,3.9,6.8,4.9,10.6
		c1.1,4.2,1.6,8.9,1.3,12.9l4,0.1h5.2c-0.8,0.6-1.6,1.1-2.4,1.7c-0.1,0.1-0.2,0.1-0.2,0.2c-0.4,0.3-0.9,0.6-1.3,0.9
		c-6.7,4.5-13.1,8.9-19.8,13.5c2.1-5.6,4.2-10.8,6.2-16.2h5.7l0-0.2c0.2-3.7-0.2-8.1-1.2-12c-1.1-4.2-2.8-7.8-5.2-10.6
		c-0.6-0.7-1.2-1.4-1.9-2c-6.8-1.4-12.8-0.6-17,0.4c-0.1,0-0.2,0.1-0.3,0.1c-3,0.8-5,1.7-5.8,2.1c-0.2,0.1-0.3,0.1-0.3,0.1
		c-6.1,2.7-11.6,6.8-15,12.5c-3.9,6.5-4.7,14.5-3.5,21.9c1.3,7.4,4.5,14.4,8.4,20.9c0.8,1.4,1.7,2.8,2.5,4.1
		c1.7-4.5,3.4-8.9,5.1-13.4c0.6-1.7,1.3-3.4,2-5c0.5-1.3,1-2.5,1.4-3.8H99.2c0.6-1.6,1.2-3.1,1.8-4.6c0.6-1.5,1.2-3.1,1.8-4.6
		c0.8-1.9,1.5-3.9,2.2-5.8h28.3c-1.7,4.3-5.3,13.8-9.4,24.7c-1,2.5-2,5.1-3,7.8c-2.4,6.3-4.8,12.7-7.1,18.6
		c4.4,5.7,8.9,11.2,13.4,16.7c0-0.5,14.3-17.9,15.6-19.6c3.7-5,7.5-10.2,10.7-15.6c0.3-0.6,0.7-1.3,1-1.9
		C160,257,162.8,243.8,159.6,232.4z"/>
	<path class="st0" d="M154,236.6l-4-0.1l-4-0.1c0.3-4-0.2-8.7-1.3-12.9c-1-3.8-2.5-7.5-4.9-10.6c-0.3-0.4-0.6-0.7-0.9-1.1
		c-1.3-1.7-3.1-3.1-4.9-4.5c-2-1.1-4-2.1-6.1-2.9c-2.2-0.8-4.4-1.1-6.7-1.4c-2.4-0.3-4.7-0.3-7.1-0.2c5.8-1,11.9-1.3,17.5,0.4
		c3.9,1.2,7.6,3.3,10.5,6.1c2.3,2.1,4.2,4.6,5.8,7.3c0.9,1.6,1.7,3.2,2.4,4.9c1,2.4,1.8,4.8,2.4,7.3
		C153.3,231.4,153.8,233.8,154,236.6z"/>
</g>
</svg>
